<svg xmlns="http://www.w3.org/2000/svg" viewBox="0 0 48.12 47.06">
						<ellipse class="cls-1" cx="19.41" cy="41.45" rx="3.68" ry="3.78"></ellipse>
						<ellipse class="cls-1" cx="35.07" cy="41.45" rx="3.68" ry="3.78"></ellipse>
						<path class="cls-2" d="M10,8H45.41c.52,0,.82.07.67.55L40.68,26c-.15.47-.55,1.05-.91,1.05H15.63c-.36,0-.76-.72-.91-1.21L9.32,8.73C9.17,8.25,9.47,8,10,8Z"></path>
						<line class="cls-3" x1="9.28" y1="7.86" x2="7.44" y2="3.23"></line>
						<path class="cls-3" d="M15.73,26.78c-.34,0-.73.39-.88.88L12,35.3"></path>
						<line class="cls-4" x1="2" y1="2" x2="7" y2="2"></line><line class="cls-4" x1="12" y1="36" x2="41" y2="36"></line>
					</svg>